# xmcd
#
# Track frame offsets: 
#        150
#        13363
#        24442
#        34541
#        47386
#        57103
#        67899
#        80167
#        93747
#        108453
#        119657
#        132213
#        143376
#        155363
#        169615
#        179954
#        194076
#        206152
#        219195
#        231433
#        243873
#        255385
#
# Disc length: 3536 seconds
#
# Revision: 0
# Processed by: cddbd v1.5.2PL0 Copyright (c) Steve Scherf et al.
# Submitted via: ExactAudioCopyFreeDBPlugin 1.0
#
DISCID=380dce16
DTITLE=Little Jimmy Scott - King And Savoy Labels
DYEAR=1900
DGENRE=
TTITLE0=Home
TTITLE1=Somewhere Down The Line
TTITLE2=What A Sin
TTITLE3=When Day Is Done
TTITLE4=Some How
TTITLE5=Dont Be Misled
TTITLE6=Please
TTITLE7=Whenever You Need Me
TTITLE8=WHen Did You Leave Heaven
TTITLE9=Everybody Needs Somebody
TTITLE10=Imagination
TTITLE11=Why Dont You Open Your Heart
TTITLE12=Am I Wrong
TTITLE13=Recess On Heaven
TTITLE14=If You Only Knew
TTITLE15=Guilty
TTITLE16=Never Peace Of Mind
TTITLE17=Please Be Kind
TTITLE18=What
TTITLE19=I May Never
TTITLE20=These Are The Things I Love
TTITLE21=My Romance
EXTD=
EXTT0=
EXTT1=
EXTT2=
EXTT3=
EXTT4=
EXTT5=
EXTT6=
EXTT7=
EXTT8=
EXTT9=
EXTT10=
EXTT11=
EXTT12=
EXTT13=
EXTT14=
EXTT15=
EXTT16=
EXTT17=
EXTT18=
EXTT19=
EXTT20=
EXTT21=
PLAYORDER=
